<svg width="12" height="12" viewBox="0 0 12 12" fill="none" xmlns="http://www.w3.org/2000/svg">
<path d="M7.81997 2.25C8.64173 2.25132 9.42946 2.57835 10.0105 3.15943C10.5916 3.74051 10.9186 4.52823 10.92 5.35C10.92 7.765 7.81997 10.75 7.81997 10.75C7.81997 10.75 4.71497 7.75 4.71497 5.35C4.71629 4.52737 5.04401 3.73888 5.62616 3.15767C6.20832 2.57645 6.99733 2.25 7.81997 2.25Z" stroke="#1E1E1E" stroke-width="0.5" stroke-linecap="round" stroke-linejoin="round"/>
<path d="M7.82004 6.625C8.52421 6.625 9.09504 6.05416 9.09504 5.35C9.09504 4.64583 8.52421 4.075 7.82004 4.075C7.11588 4.075 6.54504 4.64583 6.54504 5.35C6.54504 6.05416 7.11588 6.625 7.82004 6.625Z" stroke="#1E1E1E" stroke-width="0.5" stroke-linecap="round" stroke-linejoin="round"/>
<path d="M4.40996 8.12C4.06496 8.5 3.81996 8.75 3.81996 8.75C3.81996 8.75 1.07996 6.115 1.07996 4C1.08185 3.47941 1.23202 2.97014 1.51286 2.53181C1.79371 2.09347 2.19362 1.74422 2.66577 1.52493C3.13792 1.30564 3.66277 1.2254 4.17887 1.29359C4.69497 1.36179 5.18097 1.5756 5.57996 1.91" stroke="#1E1E1E" stroke-width="0.5" stroke-linecap="round" stroke-linejoin="round"/>
<path d="M3.81995 5.11C3.52158 5.11 3.23543 4.99147 3.02445 4.7805C2.81347 4.56952 2.69495 4.28337 2.69495 3.985C2.69495 3.68663 2.81347 3.40048 3.02445 3.18951C3.23543 2.97853 3.52158 2.86 3.81995 2.86C4.07651 2.86088 4.32514 2.94905 4.52495 3.11" stroke="#1E1E1E" stroke-width="0.5" stroke-linecap="round" stroke-linejoin="round"/>
</svg>
