<svg width="36" height="36" viewBox="0 0 36 36" fill="none" xmlns="http://www.w3.org/2000/svg">
<rect width="36" height="36" rx="10" fill="#191919"/>
<path d="M9.87502 15.2917H28.2917M12.5552 9.87504H9.64644C9.10238 9.90607 8.59283 10.1516 8.22952 10.5577C7.86621 10.9639 7.67879 11.4976 7.70836 12.0417V25.0417C7.67879 25.5858 7.86621 26.1195 8.22952 26.5257C8.59283 26.9318 9.10238 27.1773 9.64644 27.2084H26.3536C26.8977 27.1773 27.4072 26.9318 27.7705 26.5257C28.1338 26.1195 28.3213 25.5858 28.2917 25.0417V12.0417C28.3213 11.4976 28.1338 10.9639 27.7705 10.5577C27.4072 10.1516 26.8977 9.90607 26.3536 9.87504H25.0417M22.875 7.70837V12.0417M13.125 7.70837V12.0417M15.2917 9.87504L22.8317 9.85987" stroke="white" stroke-width="1.5" stroke-linecap="round" stroke-linejoin="round"/>
<path d="M12.9335 18.8918C12.8827 18.9426 12.8541 19.0115 12.8541 19.0833C12.8541 19.1552 12.8827 19.2241 12.9335 19.2748C12.9842 19.3256 13.0531 19.3542 13.125 19.3542C13.1968 19.3542 13.2657 19.3256 13.3165 19.2748C13.3673 19.2241 13.3958 19.1552 13.3958 19.0833C13.3958 19.0115 13.3673 18.9426 13.3165 18.8918C13.2657 18.841 13.1968 18.8125 13.125 18.8125C13.0531 18.8125 12.9842 18.841 12.9335 18.8918Z" stroke="white" stroke-width="1.5" stroke-linecap="round" stroke-linejoin="round" stroke-dasharray="3 3"/>
<path d="M18.1915 19.2748C18.2423 19.2241 18.2708 19.1552 18.2708 19.0833C18.2708 19.0115 18.2423 18.9426 18.1915 18.8918C18.1407 18.841 18.0718 18.8125 18 18.8125C17.9281 18.8125 17.8592 18.841 17.8085 18.8918C17.7577 18.9426 17.7291 19.0115 17.7291 19.0833C17.7291 19.1552 17.7577 19.2241 17.8085 19.2748C17.8592 19.3256 17.9281 19.3542 18 19.3542C18.0718 19.3542 18.1407 19.3256 18.1915 19.2748Z" stroke="white" stroke-width="1.5" stroke-linecap="round" stroke-linejoin="round" stroke-dasharray="3 3"/>
<path d="M23.0665 19.2748C23.1173 19.2241 23.1458 19.1552 23.1458 19.0833C23.1458 19.0115 23.1173 18.9426 23.0665 18.8918C23.0157 18.841 22.9468 18.8125 22.875 18.8125C22.8031 18.8125 22.7342 18.841 22.6835 18.8918C22.6327 18.9426 22.6041 19.0115 22.6041 19.0833C22.6041 19.1552 22.6327 19.2241 22.6835 19.2748C22.7342 19.3256 22.8031 19.3542 22.875 19.3542C22.9468 19.3542 23.0157 19.3256 23.0665 19.2748Z" stroke="white" stroke-width="1.5" stroke-linecap="round" stroke-linejoin="round" stroke-dasharray="3 3"/>
<path d="M13.3165 23.6082C13.3673 23.5574 13.3958 23.4885 13.3958 23.4167C13.3958 23.3448 13.3673 23.2759 13.3165 23.2252C13.2657 23.1744 13.1968 23.1458 13.125 23.1458C13.0531 23.1458 12.9842 23.1744 12.9335 23.2252C12.8827 23.2759 12.8541 23.3448 12.8541 23.4167C12.8541 23.4885 12.8827 23.5574 12.9335 23.6082C12.9842 23.659 13.0531 23.6875 13.125 23.6875C13.1968 23.6875 13.2657 23.659 13.3165 23.6082Z" stroke="white" stroke-width="1.5" stroke-linecap="round" stroke-linejoin="round" stroke-dasharray="3 3"/>
<path d="M18.1915 23.6082C18.2423 23.5574 18.2708 23.4885 18.2708 23.4167C18.2708 23.3448 18.2423 23.2759 18.1915 23.2252C18.1407 23.1744 18.0718 23.1458 18 23.1458C17.9281 23.1458 17.8592 23.1744 17.8085 23.2252C17.7577 23.2759 17.7291 23.3448 17.7291 23.4167C17.7291 23.4885 17.7577 23.5574 17.8085 23.6082C17.8592 23.659 17.9281 23.6875 18 23.6875C18.0718 23.6875 18.1407 23.659 18.1915 23.6082Z" stroke="white" stroke-width="1.5" stroke-linecap="round" stroke-linejoin="round" stroke-dasharray="3 3"/>
<path d="M23.0665 23.6082C23.1173 23.5574 23.1458 23.4885 23.1458 23.4167C23.1458 23.3448 23.1173 23.2759 23.0665 23.2252C23.0157 23.1744 22.9468 23.1458 22.875 23.1458C22.8031 23.1458 22.7342 23.1744 22.6835 23.2252C22.6327 23.2759 22.6041 23.3448 22.6041 23.4167C22.6041 23.4885 22.6327 23.5574 22.6835 23.6082C22.7342 23.659 22.8031 23.6875 22.875 23.6875C22.9468 23.6875 23.0157 23.659 23.0665 23.6082Z" stroke="white" stroke-width="1.5" stroke-linecap="round" stroke-linejoin="round" stroke-dasharray="3 3"/>
</svg>
