<svg width="36" height="36" viewBox="0 0 36 36" fill="none" xmlns="http://www.w3.org/2000/svg">
<rect width="36" height="36" rx="10" fill="#191919"/>
<path d="M10.9583 16.9167C12.1549 16.9167 13.125 15.9467 13.125 14.75C13.125 13.5534 12.1549 12.5834 10.9583 12.5834C9.76168 12.5834 8.79163 13.5534 8.79163 14.75C8.79163 15.9467 9.76168 16.9167 10.9583 16.9167Z" stroke="white" stroke-width="1.5" stroke-linecap="round" stroke-linejoin="round"/>
<path d="M18 23.4167C19.1967 23.4167 20.1667 22.4467 20.1667 21.25C20.1667 20.0534 19.1967 19.0834 18 19.0834C16.8034 19.0834 15.8334 20.0534 15.8334 21.25C15.8334 22.4467 16.8034 23.4167 18 23.4167Z" stroke="white" stroke-width="1.5" stroke-linecap="round" stroke-linejoin="round"/>
<path d="M25.0417 20.1667C26.2383 20.1667 27.2083 19.1967 27.2083 18C27.2083 16.8034 26.2383 15.8334 25.0417 15.8334C23.845 15.8334 22.875 16.8034 22.875 18C22.875 19.1967 23.845 20.1667 25.0417 20.1667Z" stroke="white" stroke-width="1.5" stroke-linecap="round" stroke-linejoin="round"/>
<path d="M10.9584 8.79163V10.9583M10.9584 18.5416V27.2083M25.0417 8.79163V14.2083M25.0417 21.7916V27.2083M18 27.2083V25.0416M18 17.4583V8.79163" stroke="white" stroke-width="1.5" stroke-linecap="round" stroke-linejoin="round"/>
</svg>
