<svg width="24" height="24" viewBox="0 0 24 24" fill="none" xmlns="http://www.w3.org/2000/svg">
<path d="M21.5 10.458V17.5C21.5 18.0304 21.2893 18.5391 20.9142 18.9142C20.5391 19.2893 20.0304 19.5 19.5 19.5H4.5C3.96957 19.5 3.46086 19.2893 3.08579 18.9142C2.71071 18.5391 2.5 18.0304 2.5 17.5V6.5C2.5 5.96957 2.71071 5.46086 3.08579 5.08579C3.46086 4.71071 3.96957 4.5 4.5 4.5H15.5" stroke="white" stroke-linecap="round" stroke-linejoin="round"/>
<path d="M16.449 9.144L13.31 11.865C12.9464 12.1802 12.4812 12.3537 12 12.3537C11.5188 12.3537 11.0536 12.1802 10.69 11.865L4.5 6.5" stroke="white" stroke-linecap="round" stroke-linejoin="round"/>
<path d="M19 17L16 14M8 14L5 17" stroke="white" stroke-linecap="round" stroke-linejoin="round"/>
<path d="M20 9C21.6569 9 23 7.65685 23 6C23 4.34315 21.6569 3 20 3C18.3431 3 17 4.34315 17 6C17 7.65685 18.3431 9 20 9Z" stroke="white" stroke-linecap="round" stroke-linejoin="round"/>
</svg>
