<svg width="64" height="64" viewBox="0 0 64 64" fill="none" xmlns="http://www.w3.org/2000/svg">
<g clip-path="url(#clip0_115_453)">
<path d="M42.6667 14.6667C42.6667 13.2522 42.1048 11.8956 41.1046 10.8954C40.1044 9.89524 38.7479 9.33333 37.3334 9.33333C37.3334 7.91885 36.7715 6.56229 35.7713 5.5621C34.7711 4.5619 33.4145 4 32 4C30.5856 4 29.229 4.5619 28.2288 5.5621C27.2286 6.56229 26.6667 7.91885 26.6667 9.33333C25.2522 9.33333 23.8957 9.89524 22.8955 10.8954C21.8953 11.8956 21.3334 13.2522 21.3334 14.6667V17.3333H42.6667V14.6667Z" stroke="#E4F6FD" stroke-width="2" stroke-linecap="round" stroke-linejoin="round"/>
<path d="M46.6667 12H49.3333C50.0406 12 50.7189 12.281 51.219 12.781C51.7191 13.2811 52 13.9594 52 14.6667V54.6667C52 55.3739 51.7191 56.0522 51.219 56.5523C50.7189 57.0524 50.0406 57.3333 49.3333 57.3333H14.6667C13.9594 57.3333 13.2811 57.0524 12.781 56.5523C12.281 56.0522 12 55.3739 12 54.6667V14.6667C12 13.9594 12.281 13.2811 12.781 12.781C13.2811 12.281 13.9594 12 14.6667 12H17.3333" stroke="#E4F6FD" stroke-width="2" stroke-linecap="round" stroke-linejoin="round"/>
<path d="M20.28 44.2987C24.337 44.298 28.2276 42.6858 31.0961 39.8168C33.9646 36.9479 35.576 33.057 35.576 29V25.3093" stroke="#E4F6FD" stroke-width="2" stroke-linecap="round" stroke-linejoin="round"/>
<path d="M35.7866 49.2533L43.376 41.6639M43.376 49.2533L35.7866 41.6639" stroke="#E4F6FD" stroke-width="2" stroke-linecap="round" stroke-linejoin="round"/>
<path d="M22.5066 37.2933C24.8085 37.2933 26.6746 35.4272 26.6746 33.1253C26.6746 30.8234 24.8085 28.9573 22.5066 28.9573C20.2047 28.9573 18.3386 30.8234 18.3386 33.1253C18.3386 35.4272 20.2047 37.2933 22.5066 37.2933Z" stroke="#E4F6FD" stroke-width="2" stroke-linecap="round" stroke-linejoin="round"/>
</g>
<defs>
<clipPath id="clip0_115_453">
<rect width="64" height="64" fill="white"/>
</clipPath>
</defs>
</svg>
