<svg width="64" height="64" viewBox="0 0 64 64" fill="none" xmlns="http://www.w3.org/2000/svg">
<path d="M32.5333 6.33599L35.0907 11.5173C35.1346 11.6042 35.1987 11.6792 35.2776 11.7363C35.3564 11.7934 35.4478 11.8307 35.544 11.8453L41.2613 12.6773C41.3723 12.6932 41.4766 12.7399 41.5624 12.812C41.6482 12.8842 41.7121 12.9789 41.7468 13.0855C41.7815 13.1921 41.7856 13.3063 41.7588 13.4152C41.7319 13.524 41.675 13.6231 41.5947 13.7013L37.464 17.736C37.3937 17.8039 37.3411 17.8881 37.3109 17.9811C37.2806 18.074 37.2737 18.173 37.2907 18.2693L38.2667 23.9653C38.2852 24.0758 38.2726 24.1892 38.2303 24.2929C38.1879 24.3966 38.1175 24.4864 38.027 24.5524C37.9364 24.6183 37.8293 24.6576 37.7176 24.6661C37.6059 24.6745 37.4941 24.6516 37.3947 24.6L32.28 21.9067C32.1934 21.862 32.0974 21.8387 32 21.8387C31.9026 21.8387 31.8066 21.862 31.72 21.9067L26.6053 24.5973C26.5059 24.6489 26.3941 24.6718 26.2824 24.6634C26.1707 24.655 26.0636 24.6156 25.973 24.5497C25.8825 24.4838 25.8121 24.3939 25.7697 24.2902C25.7274 24.1866 25.7148 24.0731 25.7333 23.9627L26.7093 18.2667C26.7263 18.1704 26.7194 18.0714 26.6891 17.9784C26.6589 17.8854 26.6063 17.8012 26.536 17.7333L22.4 13.7013C22.3196 13.6231 22.2628 13.524 22.2359 13.4152C22.209 13.3063 22.2131 13.1921 22.2479 13.0855C22.2826 12.9789 22.3464 12.8842 22.4322 12.812C22.518 12.7399 22.6223 12.6932 22.7333 12.6773L28.4507 11.8453C28.5469 11.8307 28.6383 11.7934 28.7171 11.7363C28.796 11.6792 28.86 11.6042 28.904 11.5173L31.4667 6.33599C31.5171 6.23805 31.5936 6.1559 31.6877 6.09855C31.7818 6.0412 31.8898 6.01086 32 6.01086C32.1102 6.01086 32.2182 6.0412 32.3123 6.09855C32.4064 6.1559 32.4829 6.23805 32.5333 6.33599Z" stroke="#E4F6FD" stroke-width="2" stroke-linecap="round" stroke-linejoin="round"/>
<path d="M4 57.3334V38.6667H22.6667V57.3334V33.3334H41.3333V57.3334V44H60V57.3334" stroke="#E4F6FD" stroke-width="2" stroke-linecap="round" stroke-linejoin="round"/>
</svg>
