<svg width="64" height="64" viewBox="0 0 64 64" fill="none" xmlns="http://www.w3.org/2000/svg">
<g clip-path="url(#clip0_115_438)">
<path d="M51.8559 40.0346C50.1267 44.5869 46.9758 48.4604 42.871 51.0803C38.7662 53.7002 33.9261 54.927 29.0689 54.5785C24.2117 54.2301 19.5963 52.325 15.9075 49.146C12.2186 45.967 9.65297 41.6834 8.59119 36.9309C7.52941 32.1784 8.02808 27.2102 10.0132 22.7636C11.9983 18.3169 15.3641 14.6287 19.6112 12.2462C23.8582 9.86374 28.7602 8.91395 33.5897 9.53779C38.4193 10.1616 42.919 12.3258 46.4213 15.7093" stroke="#E4F6FD" stroke-width="2" stroke-miterlimit="10" stroke-linecap="round"/>
<path d="M44.2854 37.424C43.829 38.5762 43.2267 39.665 42.4934 40.664C40.7798 43.0045 38.4107 44.7844 35.6856 45.7785C32.9605 46.7725 30.0018 46.9362 27.1837 46.2488C24.3656 45.5614 21.8145 44.0538 19.8533 41.9165C17.892 39.7793 16.6085 37.1085 16.165 34.2419C15.7216 31.3752 16.1382 28.4414 17.3622 25.8115C18.5861 23.1816 20.5624 20.9737 23.0412 19.467C25.5199 17.9603 28.3898 17.2224 31.2879 17.3467C34.186 17.471 36.9821 18.4519 39.3227 20.1654C39.6561 20.4107 39.9787 20.6667 40.2854 20.9334" stroke="#E4F6FD" stroke-width="2" stroke-miterlimit="10" stroke-linecap="round"/>
<path d="M36.0373 35.9387C35.2583 37.0025 34.1813 37.8115 32.9426 38.2632C31.7038 38.715 30.3589 38.7892 29.078 38.4767C27.797 38.1641 26.6375 37.4786 25.7461 36.507C24.8547 35.5355 24.2714 34.3214 24.07 33.0183C23.8687 31.7152 24.0582 30.3817 24.6147 29.1863C25.1712 27.991 26.0697 26.9875 27.1965 26.3028C28.3233 25.618 29.6279 25.2828 30.9452 25.3395C32.2626 25.3963 33.5335 25.8423 34.5973 26.6214M43.2773 29.104L31.6346 31.832" stroke="#E4F6FD" stroke-width="2" stroke-miterlimit="10" stroke-linecap="round"/>
<path d="M54.1787 26.5493L58.408 29.1733C58.6126 29.3003 58.7749 29.4851 58.8746 29.7043C58.9742 29.9235 59.0067 30.1673 58.9679 30.405C58.9291 30.6426 58.8208 30.8634 58.6566 31.0396C58.4924 31.2157 58.2797 31.3393 58.0453 31.3946L50.0053 33.2773L43.2773 29.1039L47.4507 22.3759L55.4907 20.4933C55.7252 20.4378 55.9709 20.4532 56.1966 20.5376C56.4223 20.6219 56.6179 20.7715 56.7585 20.9672C56.899 21.1629 56.9783 21.396 56.9862 21.6369C56.994 21.8777 56.9302 22.1155 56.8027 22.3199L54.1787 26.5493Z" stroke="#E4F6FD" stroke-width="2" stroke-linecap="round" stroke-linejoin="round"/>
</g>
<defs>
<clipPath id="clip0_115_438">
<rect width="64" height="64" fill="white"/>
</clipPath>
</defs>
</svg>
