<svg width="64" height="64" viewBox="0 0 64 64" fill="none" xmlns="http://www.w3.org/2000/svg">
<g opacity="0.1">
<path d="M36.4536 58.3416C50.2985 56.3438 59.9025 43.5008 57.9047 29.6559C55.9069 15.811 43.0639 6.20708 29.219 8.20487C15.3741 10.2027 5.77016 23.0457 7.76795 36.8905C9.76574 50.7354 22.6088 60.3394 36.4536 58.3416Z" stroke="black" stroke-width="2" stroke-linecap="round" stroke-linejoin="round"/>
<path d="M39.5646 33.0022C40.5218 25.7024 35.9721 19.0863 29.4024 18.2248C22.8327 17.3633 16.7309 22.5825 15.7736 29.8824C14.8163 37.1822 19.3661 43.7983 25.9358 44.6598C32.5055 45.5213 38.6073 40.3021 39.5646 33.0022Z" stroke="black" stroke-width="2" stroke-linecap="round" stroke-linejoin="round"/>
<path d="M32.4978 28.2775C32.7659 26.2331 30.8525 24.2964 28.224 23.9517C25.5955 23.607 23.2474 24.9849 22.9793 27.0292C22.7112 29.0736 24.6247 31.0103 27.2531 31.355C29.8816 31.6997 32.2297 30.3218 32.4978 28.2775Z" stroke="black" stroke-width="2" stroke-linecap="round" stroke-linejoin="round"/>
<path d="M31.5274 35.6801C31.7955 33.6358 29.882 31.6991 27.2535 31.3544C24.6251 31.0097 22.277 32.3875 22.0089 34.4319C21.7408 36.4762 23.6542 38.413 26.2827 38.7576C28.9112 39.1023 31.2593 37.7245 31.5274 35.6801Z" stroke="black" stroke-width="2" stroke-linecap="round" stroke-linejoin="round"/>
</g>
</svg>
