<svg width="64" height="64" viewBox="0 0 64 64" fill="none" xmlns="http://www.w3.org/2000/svg">
<path opacity="0.1" d="M42.5093 10.7707L45.7253 7.55467C47.1551 6.17374 49.0702 5.40964 51.058 5.42694C53.0457 5.44424 54.9472 6.24156 56.3528 7.64717C57.7584 9.05279 58.5557 10.9542 58.573 12.942C58.5903 14.9298 57.8262 16.8448 56.4453 18.2747L53.2293 21.4907L47.0719 15.3333M33.2159 25.4213L15.3173 36.1733C8.71728 40.7067 23.2879 55.2827 27.8266 48.6827L38.5786 30.784M40.3386 14.4533L17.9386 18.9547C-6.77339 24.584 12.2666 32.3253 13.4559 32.128M31.8719 50.544C31.6746 51.7413 39.4159 70.7733 45.0453 46.0587L49.5466 23.6587" stroke="black" stroke-width="2" stroke-linecap="round" stroke-linejoin="round"/>
</svg>
