<svg width="64" height="64" viewBox="0 0 64 64" fill="none" xmlns="http://www.w3.org/2000/svg">
<g opacity="0.1">
<path d="M20.1333 18.4933C18.0358 21.8688 16.9711 25.7838 17.0701 29.7566C17.1692 33.7294 18.4276 37.5866 20.6906 40.8533L10.7013 47.0373C9.87257 47.5504 9.17064 48.2443 8.648 49.067C8.12535 49.8898 7.79553 50.82 7.6832 51.7882C7.57088 52.7564 7.67896 53.7375 7.99936 54.658C8.31976 55.5785 8.84419 56.4147 9.5334 57.1039C10.2226 57.7931 11.0588 58.3175 11.9793 58.6379C12.8998 58.9583 13.8809 59.0664 14.8491 58.9541C15.8173 58.8417 16.7475 58.5119 17.5702 57.9893C18.3929 57.4666 19.0868 56.7647 19.5999 55.936L25.7839 45.9467C29.9081 48.8188 34.9472 50.0675 39.9352 49.4533C44.9233 48.8392 49.509 46.4054 52.8133 42.6187C56.0998 38.7764 57.86 33.8604 57.7592 28.8053C57.6584 23.7501 55.7037 18.9082 52.2666 15.2C49.3798 12.1358 45.6124 10.0439 41.4853 9.21333M31.9546 44.6L17.2266 29.872" stroke="black" stroke-width="2" stroke-linecap="round" stroke-linejoin="round"/>
<path d="M25.3706 7C24.5164 7.85395 23.9346 8.94205 23.6988 10.1267C23.463 11.3113 23.5838 12.5393 24.0459 13.6552C24.5081 14.7712 25.2908 15.7251 26.2951 16.3962C27.2994 17.0673 28.4801 17.4255 29.688 17.4255C30.8958 17.4255 32.0766 17.0673 33.0809 16.3962C34.0851 15.7251 34.8679 14.7712 35.33 13.6552C35.7921 12.5393 35.9129 11.3113 35.6771 10.1267C35.4414 8.94205 34.8595 7.85395 34.0053 7C32.8601 5.85522 31.3072 5.21213 29.688 5.21213C28.0687 5.21213 26.5158 5.85522 25.3706 7Z" stroke="black" stroke-width="2" stroke-linecap="round" stroke-linejoin="round"/>
</g>
</svg>
